<svg height="512pt" viewBox="0 -8 512 512" width="512pt" xmlns="http://www.w3.org/2000/svg"><path d="m449.980469 276.417969v-247.65625h-60v-28.761719h-29.996094v28.761719h-30v-28.761719h-30v28.761719h-30v-28.761719h-29.996094v28.761719h-30v-28.761719h-29.996093v28.761719h-30v-28.761719h-29.996094v28.761719h-30.003906v-28.761719h-29.996094v28.761719h-59.996094v384.4375h284.609375c14.574219 47.558593 58.890625 82.242187 111.160156 82.242187 64.089844 0 116.230469-52.144531 116.230469-116.234375 0-44.523437-25.167969-83.273437-62.019531-102.789062zm-389.984375-217.660157v46.339844h30v-46.339844h30v46.339844h29.996094v-46.339844h30v46.339844h30v-46.339844h30v46.339844h29.996093v-46.339844h30v46.339844h29.996094v-46.339844h30.003906v46.339844h29.996094v-46.339844h30v82.675782h-389.988281v-82.675782zm-30 324.445313v-211.769531h389.984375v94.085937c-7.8125-1.660156-15.910157-2.542969-24.210938-2.542969-1.941406 0-3.871093.050782-5.789062.144532v-59.140625h-329.984375v147.984375h222.773437c-2.109375 8.742187-3.234375 17.863281-3.234375 27.242187 0 1.339844.03125 2.667969.078125 3.996094zm329.988281-120.226563h-30.148437v-29h30.148437zm-60.144531 0h-30.152344v-29h30.152344zm-60.148438 0h-30.148437v-29h30.148437zm-60.144531 0h-30.152344v-29h30.152344zm-60.148437 0h-29.40625v-29h29.40625zm-29.40625 29.996094h29.40625v28.996094h-29.40625zm59.402343 0h30.152344v28.996094h-30.152344zm60.148438 0h30.148437v28.996094h-30.148437zm60.144531 0h30.152344v20.679688c-1.847656 2.695312-3.585938 5.46875-5.203125 8.316406h-24.949219zm126.082031 172.46875c-47.550781 0-86.238281-38.683594-86.238281-86.234375s38.6875-86.234375 86.238281-86.234375 86.234375 38.683594 86.234375 86.234375-38.683594 86.234375-86.234375 86.234375zm0 0"/><path d="m383.367188 379.742188-17.839844-17.835938-21.210938 21.210938 39.050782 39.046874 63.851562-63.851562-21.210938-21.210938zm0 0"/></svg>