<svg height="512pt" viewBox="0 0 512 512" width="512pt" xmlns="http://www.w3.org/2000/svg"><path d="m0 391h61v121l111.210938-121h339.789062v-391h-512zm256-330c74.441406 0 135 60.558594 135 135s-60.558594 135-135 135-135-60.558594-135-135 60.558594-135 135-135zm0 0"/><path d="m256 301c57.890625 0 105-47.109375 105-105s-47.109375-105-105-105-105 47.109375-105 105 47.109375 105 105 105zm15-150h60v30h-60zm23.980469 67.472656 25.957031 15.058594c-13.417969 23.113281-38.292969 37.46875-64.9375 37.46875s-51.519531-14.355469-64.9375-37.472656l25.957031-15.058594c8.058594 13.902344 23 22.53125 38.980469 22.53125s30.921875-8.628906 38.980469-22.527344zm-113.980469-67.472656h60v30h-60zm0 0"/></svg>