<?xml version="1.0" encoding="utf-8"?>
<!-- Generator: Adobe Illustrator 22.1.0, SVG Export Plug-In . SVG Version: 6.00 Build 0)  -->
<svg xmlns="http://www.w3.org/2000/svg" xmlns:xlink="http://www.w3.org/1999/xlink" version="1.1" id="Layer_1" x="0px" y="0px" viewBox="0 0 256 256" style="enable-background:new 0 0 256 256;" xml:space="preserve" width="512" height="512">
<style type="text/css">
	.st0{fill:#7BAC51;}
	.st1{fill:#5D8E33;}
	.st2{fill:#99CA6F;}
	.st3{fill:#FCC24C;}
	.st4{fill:#690589;}
	.st5{fill:#FF4397;}
	.st6{fill:#FF9F70;}
	.st7{fill:#E18152;}
	.st8{fill:#D6D1CF;}
	.st9{fill:#F4EFED;}
	.st10{fill:#FFFFFF;}
	.st11{fill:#E12579;}
	.st12{fill:#DEA42E;}
	.st13{fill:#FCE06A;}
	.st14{fill:#FFBD8E;}
	.st15{fill:#FF61B5;}
</style>
<g>
	<g>
		<path class="st9" d="M225.643,4H78.03c-5.523,0-10,4.477-10,10v228c0,5.523,4.477,10,10,10h147.613c5.523,0,10-4.477,10-10V14    C235.643,8.477,231.166,4,225.643,4z"/>
	</g>
	<g>
		<path class="st8" d="M225.179,4h-10.464c5.779,0,10.464,4.685,10.464,10.464v227.072c0,5.779-4.685,10.464-10.464,10.464h10.464    c5.779,0,10.464-4.685,10.464-10.464V14.464C235.643,8.685,230.958,4,225.179,4z"/>
	</g>
	<g>
		<path class="st10" d="M78.494,252h10.464c-5.779,0-10.464-4.685-10.464-10.464V14.464C78.494,8.685,83.179,4,88.959,4H78.494    C72.715,4,68.03,8.685,68.03,14.464v227.072C68.03,247.315,72.715,252,78.494,252z"/>
	</g>
	<g>
		<path class="st4" d="M225.643,254H78.03c-6.617,0-12-5.383-12-12V14c0-6.617,5.383-12,12-12h147.612c6.617,0,12,5.383,12,12v228    C237.643,248.617,232.26,254,225.643,254z M78.03,6c-4.411,0-8,3.589-8,8v228c0,4.411,3.589,8,8,8h147.612c4.411,0,8-3.589,8-8V14    c0-4.411-3.589-8-8-8H78.03z"/>
	</g>
	<g>
		<path class="st9" d="M105.192,252H30.357c-5.523,0-10-4.477-10-10V136.9c0-5.523,4.477-10,10-10h74.835c5.523,0,10,4.477,10,10    V242C115.192,247.523,110.715,252,105.192,252z"/>
	</g>
	<g>
		<path class="st8" d="M104.728,126.9H94.264c5.779,0,10.464,4.685,10.464,10.464v104.171c0,5.779-4.685,10.464-10.464,10.464    h10.464c5.779,0,10.464-4.685,10.464-10.464V137.365C115.192,131.585,110.507,126.9,104.728,126.9z"/>
	</g>
	<g>
		<path class="st10" d="M30.821,252h10.464c-5.779,0-10.464-4.685-10.464-10.464V137.365c0-5.779,4.685-10.464,10.464-10.464H30.821    c-5.779,0-10.464,4.685-10.464,10.464v104.171C20.357,247.315,25.042,252,30.821,252z"/>
	</g>
	<g>
		<rect x="45.83" y="110.984" class="st8" width="43.888" height="15.916"/>
	</g>
	<g>
		<path class="st4" d="M105.192,254H30.357c-6.617,0-12-5.383-12-12V136.9c0-6.617,5.383-12,12-12h74.835c6.617,0,12,5.383,12,12    V242C117.192,248.617,111.81,254,105.192,254z M30.357,128.9c-4.411,0-8,3.589-8,8V242c0,4.411,3.589,8,8,8h74.835    c4.411,0,8-3.589,8-8V136.9c0-4.411-3.589-8-8-8H30.357z"/>
	</g>
	<g>
		<path class="st4" d="M28.106,157.125c-1.104,0-2-0.896-2-2v-12.618c0-1.104,0.896-2,2-2s2,0.896,2,2v12.618    C30.106,156.229,29.211,157.125,28.106,157.125z"/>
	</g>
	<g>
		<path class="st4" d="M89.719,128.9H45.83c-1.104,0-2-0.896-2-2v-15.916c0-1.104,0.896-2,2-2h43.889c1.104,0,2,0.896,2,2V126.9    C91.719,128.005,90.823,128.9,89.719,128.9z M47.83,124.9h39.889v-11.916H47.83V124.9z"/>
	</g>
	<g>
		<path class="st5" d="M89.861,184.737l-26.959,26.959c-4.543,4.543-11.908,4.543-16.45,0l-0.763-0.764    c-4.543-4.543-4.543-11.908,0-16.45l26.959-26.959c4.543-4.543,11.908-4.543,16.45,0l0.764,0.764    C94.403,172.83,94.403,180.195,89.861,184.737z"/>
	</g>
	<g>
		<path class="st3" d="M59.167,181.003L46.07,194.1c-4.754,4.753-4.753,12.46,0,17.214c4.754,4.754,12.46,4.754,17.214,0    l13.098-13.098L59.167,181.003z"/>
	</g>
	<g>
		<path class="st4" d="M54.677,217.097c-3.491,0-6.981-1.328-9.639-3.986l-0.764-0.764c-2.575-2.575-3.993-5.998-3.993-9.64    s1.418-7.064,3.993-9.639l26.958-26.959c5.314-5.316,13.965-5.316,19.279,0l0.764,0.765c5.314,5.314,5.314,13.962-0.001,19.277    L64.316,213.11C61.659,215.768,58.167,217.097,54.677,217.097z M80.872,166.121c-2.467,0-4.934,0.938-6.812,2.816l-26.958,26.959    c-1.819,1.819-2.821,4.238-2.821,6.811c0,2.573,1.002,4.992,2.821,6.812l0.764,0.764c3.756,3.754,9.866,3.755,13.622,0    l26.958-26.959l0,0c3.756-3.756,3.756-9.866,0-13.622l-0.764-0.765C85.806,167.06,83.339,166.121,80.872,166.121z"/>
	</g>
	<g>
		<path class="st4" d="M75.642,199.477c-0.512,0-1.023-0.195-1.414-0.586l-15.734-15.734c-0.781-0.781-0.781-2.047,0-2.828    s2.047-0.781,2.828,0l15.734,15.734c0.781,0.781,0.781,2.047,0,2.828C76.665,199.281,76.153,199.477,75.642,199.477z"/>
	</g>
	<g>
		<path class="st5" d="M165.592,42.186l-26.959,26.959c-4.542,4.543-11.907,4.543-16.45,0l-0.764-0.764    c-4.543-4.543-4.543-11.908,0-16.451l26.958-26.958c4.543-4.543,11.908-4.543,16.451,0l0.764,0.764    C170.135,30.278,170.135,37.643,165.592,42.186z"/>
	</g>
	<g>
		<path class="st3" d="M134.898,38.452l-13.098,13.097c-4.754,4.754-4.754,12.46,0,17.214c4.753,4.753,12.46,4.753,17.214,0    l13.098-13.098L134.898,38.452z"/>
	</g>
	<g>
		<path class="st4" d="M130.408,74.552c-3.642,0-7.064-1.417-9.64-3.992l-0.764-0.764c-5.315-5.315-5.315-13.965,0-19.279    l26.959-26.958c2.574-2.575,5.997-3.993,9.639-3.993s7.064,1.418,9.64,3.993l0.764,0.764c2.575,2.574,3.993,5.997,3.993,9.639    s-1.418,7.064-3.993,9.639l-26.959,26.959C137.473,73.134,134.05,74.552,130.408,74.552z M156.603,23.565    c-2.572,0-4.991,1.002-6.811,2.821l-26.959,26.958c-3.755,3.756-3.755,9.867,0,13.623l0.764,0.764    c3.756,3.754,9.866,3.753,13.622-0.001l26.959-26.959l0,0c1.819-1.819,2.821-4.238,2.821-6.811s-1.002-4.991-2.821-6.811    l-0.764-0.764C161.595,24.567,159.176,23.565,156.603,23.565z"/>
	</g>
	<g>
		<path class="st4" d="M151.372,56.926c-0.512,0-1.023-0.195-1.414-0.586l-15.733-15.734c-0.781-0.781-0.781-2.047,0-2.828    s2.047-0.781,2.828,0l15.733,15.734c0.781,0.781,0.781,2.047,0,2.828C152.396,56.73,151.884,56.926,151.372,56.926z"/>
	</g>
	<g>
		<path class="st4" d="M212.18,95.611h-96.987c-1.104,0-2-0.896-2-2s0.896-2,2-2h96.987c1.104,0,2,0.896,2,2    S213.284,95.611,212.18,95.611z"/>
	</g>
	<g>
		<path class="st4" d="M212.18,120.06h-76.06c-1.104,0-2-0.896-2-2s0.896-2,2-2h76.06c1.104,0,2,0.896,2,2    S213.284,120.06,212.18,120.06z"/>
	</g>
	<g>
		<path class="st4" d="M212.18,144.507h-76.06c-1.104,0-2-0.896-2-2s0.896-2,2-2h76.06c1.104,0,2,0.896,2,2    S213.284,144.507,212.18,144.507z"/>
	</g>
	<g>
		<path class="st4" d="M212.18,168.954h-76.06c-1.104,0-2-0.896-2-2s0.896-2,2-2h76.06c1.104,0,2,0.896,2,2    S213.284,168.954,212.18,168.954z"/>
	</g>
	<g>
		<path class="st4" d="M212.18,193.401h-76.06c-1.104,0-2-0.896-2-2s0.896-2,2-2h76.06c1.104,0,2,0.896,2,2    S213.284,193.401,212.18,193.401z"/>
	</g>
	<g>
		<path class="st4" d="M212.18,217.849h-76.06c-1.104,0-2-0.896-2-2s0.896-2,2-2h76.06c1.104,0,2,0.896,2,2    S213.284,217.849,212.18,217.849z"/>
	</g>
	<g>
		<path class="st5" d="M92.253,84.381H43.295c-2.761,0-5,2.238-5,5v16.603c0,2.761,2.239,5,5,5h48.958c2.761,0,5-2.239,5-5V89.381    C97.253,86.62,95.015,84.381,92.253,84.381z"/>
	</g>
	<g>
		<path class="st11" d="M92.41,84.381h-9.688c2.675,0,4.844,2.168,4.844,4.844v16.915c0,2.675-2.169,4.844-4.844,4.844h9.688    c2.675,0,4.844-2.169,4.844-4.844V89.225C97.253,86.55,95.085,84.381,92.41,84.381z"/>
	</g>
	<g>
		<path class="st15" d="M43.139,110.984h9.688c-2.675,0-4.844-2.169-4.844-4.844V89.225c0-2.675,2.169-4.844,4.844-4.844h-9.688    c-2.675,0-4.844,2.168-4.844,4.844v16.915C38.295,108.815,40.464,110.984,43.139,110.984z"/>
	</g>
	<g>
		<path class="st4" d="M92.253,112.984H43.295c-3.859,0-7-3.141-7-7V89.381c0-3.859,3.141-7,7-7h48.958c3.859,0,7,3.141,7,7v16.604    C99.253,109.844,96.112,112.984,92.253,112.984z M43.295,86.381c-1.654,0-3,1.346-3,3v16.604c0,1.654,1.346,3,3,3h48.958    c1.654,0,3-1.346,3-3V89.381c0-1.654-1.346-3-3-3H43.295z"/>
	</g>
</g>
</svg>
