<?xml version="1.0" encoding="iso-8859-1"?>
<!-- Generator: Adobe Illustrator 19.0.0, SVG Export Plug-In . SVG Version: 6.00 Build 0)  -->
<svg xmlns="http://www.w3.org/2000/svg" xmlns:xlink="http://www.w3.org/1999/xlink" version="1.1" id="Layer_1" x="0px" y="0px" viewBox="0 0 512 512" style="enable-background:new 0 0 512 512;" xml:space="preserve" width="512" height="512">
<g>
	<path d="M236.809,407.304l-50.31-41.576c-14.762-12.199-20.467-31.158-14.888-49.478c5.579-18.32,20.883-30.882,39.938-32.783   l78.634-7.845c1.744-0.174,3.257-1.351,3.855-2.997l17.488-48.177c6.768-18.642,23.955-30.688,43.787-30.688   c19.833,0,37.02,12.046,43.788,30.688v0l17.488,48.176c0.598,1.647,2.11,2.824,3.855,2.998l11.978,1.195l68.872-56.904   c9.198-7.6,12.896-19.886,9.421-31.301c-3.476-11.414-13.392-19.555-25.266-20.74l-156.599-15.624L283.703,27.882   c-4.28-11.794-15.154-19.414-27.7-19.415c0,0,0,0-0.001,0c-12.545,0-23.42,7.62-27.7,19.414l-45.145,124.367L26.553,167.872   c-11.872,1.185-21.789,9.325-25.265,20.739c-3.476,11.414,0.222,23.701,9.418,31.301l108.406,89.586L87.328,453.704   c-2.658,12.062,2.3,24.229,12.633,30.996c4.959,3.248,10.563,4.864,16.157,4.864c6.06,0,12.108-1.898,17.305-5.673l104.216-75.689   C237.406,407.873,237.13,407.57,236.809,407.304z"/>
	<path d="M496.086,313.319l-78.624-7.844c-13.154-1.312-24.567-10.189-29.076-22.614l-17.488-48.176   c-3.68-10.136-12.861-10.924-15.587-10.924c-2.726,0-11.907,0.788-15.586,10.924l-17.488,48.176   c-4.509,12.425-15.922,21.302-29.076,22.614l-78.634,7.845c-10.203,1.018-13.461,9.189-14.216,11.67   c-0.755,2.48-2.606,11.08,5.3,17.612l50.309,41.575c10.049,8.304,14.549,21.371,11.744,34.104l-14.311,64.93   c-2.285,10.367,4.862,15.97,7.109,17.441c2.244,1.47,10.237,5.782,18.828-0.455l55.692-40.447   c6.078-4.415,13.202-6.622,20.324-6.622c7.129,0,14.256,2.211,20.34,6.633l55.685,40.489c8.586,6.241,16.585,1.933,18.831,0.463   c2.246-1.47,9.398-7.072,7.114-17.441l-14.317-65.012c-2.803-12.731,1.698-25.798,11.748-34.101l50.297-41.557   c7.906-6.532,6.057-15.132,5.301-17.613C509.548,322.509,506.291,314.337,496.086,313.319z"/>
</g>















</svg>
