<svg height="496pt" viewBox="0 -20 496.904 496" width="496pt" xmlns="http://www.w3.org/2000/svg"><path d="m480.289062 296.453125h-192.578124l10.914062 101.871094c6.101562 11.023437 17.75 18.128906 30.671875 18.128906h109.40625c12.929687 0 24.570313-7.105469 30.671875-18.128906zm0 0" fill="#f0bc5e"/><path d="m8 208.453125 16 176h208l16-176zm176 104h-40v40h-32v-40h-40v-32h40v-40h32v40h40zm0 0" fill="#f0bc5e"/><path d="m463.59375 216.453125c.261719-2.632813.40625-5.296875.40625-8 0-44.113281-35.886719-80-80-80s-80 35.886719-80 80c0 2.703125.144531 5.367187.40625 8h-33.308594l21.886719 204.253906c2.183594 20.378907 19.28125 35.746094 39.777344 35.746094h102.484375c20.496094 0 37.59375-15.367187 39.777344-35.746094l21.878906-204.253906zm-79.59375-72c32.574219 0 59.488281 24.480469 63.449219 56h-23.449219v16h23.449219c-3.960938 31.519531-30.875 56-63.449219 56s-59.488281-24.480469-63.449219-56h87.449219v-16h-87.449219c3.960938-31.519531 30.875-56 63.449219-56zm51.238281 296h-102.476562c-12.210938 0-22.386719-9.097656-23.816407-21.183594 6.144532 3.292969 13.078126 5.183594 20.351563 5.183594h14.703125v-16h-14.703125c-9.410156 0-17.96875-4.847656-22.898437-12.722656l-17.496094-163.277344h18.785156c10.222656 32.414063 40.558594 56 76.3125 56s66.089844-23.585937 76.3125-56h18.785156l-17.496094 163.269531c-4.929687 7.882813-13.488281 12.730469-22.898437 12.730469h-78.703125v16h78.703125c7.273437 0 14.207031-1.890625 20.351563-5.183594-1.429688 12.085938-11.605469 21.183594-23.816407 21.183594zm0 0"/><path d="m213.734375 128.644531-17.199219-3.824219c-7.375-1.640624-12.535156-8.0625-12.535156-15.625v-30.222656c9.289062-3.3125 16-12.113281 16-22.527344v-31.992187c0-13.234375-10.769531-24-24-24h-96c-13.230469 0-24 10.765625-24 24v32c0 10.414063 6.710938 19.214844 16 22.527344v30.222656c0 7.5625-5.160156 13.984375-12.527344 15.625l-17.199218 3.824219c-24.890626 5.519531-42.273438 27.191406-42.273438 52.679687v1.726563c0 1.082031.0390625 2.167968.105469 3.265625l14.09375 232.542969c1.273437 21.082031 18.808593 37.585937 39.921875 37.585937h147.765625c21.113281 0 38.648437-16.503906 39.921875-37.578125l14.09375-232.558594c.058594-1.082031.097656-2.175781.097656-3.257812v-1.726563c0-25.488281-17.382812-47.160156-42.265625-52.6875zm-37.734375-64.191406h-96c-4.414062 0-8-3.59375-8-8v-8h112v8c0 4.40625-3.585938 8-8 8zm-40-32v-16h16v16zm-16 0h-16v-16h16zm64-8v8h-16v-16h8c4.414062 0 8 3.589844 8 8zm-104-8h8v16h-16v-8c0-4.410156 3.585938-8 8-8zm160 166.605469c0 .769531-.023438 1.539062-.070312 2.296875l-14.097657 232.542969c-.761719 12.648437-11.289062 22.554687-23.953125 22.554687h-147.757812c-12.664063 0-23.183594-9.90625-23.953125-22.546875l-14.097657-232.535156c-.046874-.765625-.070312-1.542969-.070312-2.3125v-1.726563c0-17.9375 12.222656-33.175781 29.734375-37.070312l17.203125-3.824219c14.757812-3.28125 25.0625-16.128906 25.0625-31.242188v-28.742187h80v28.742187c0 15.113282 10.304688 27.960938 25.0625 31.242188l17.203125 3.824219c17.511719 3.894531 29.734375 19.132812 29.734375 37.070312zm0 0"/><path d="m152 232.453125h-48v40h-40v48h40v40h48v-40h40v-48h-40zm24 56v16h-40v40h-16v-40h-40v-16h40v-40h16v40zm0 0"/></svg>